# xmcd
#
# Track frame offsets:
#	150
#	14980
#	31798
#	46890
#	63405
#	79338
#	94326
#	110425
#	123517
#	139920
#	153678
#	170187
#	184952
#	202338
#	217328
#	231783
#
# Disc length: 3263 seconds
#
# Revision: 1
# Processed by: cddbd v1.4PL0 Copyright (c) Steve Scherf et al.
# Submitted via: audiograbber 1.80
#
DISCID=fd0cbd10
DTITLE=Mikko Mäkeläinen - Mikko Mäkeläinen
DYEAR=1900
DGENRE=
TTITLE0=Onnen Lainaksi Sain
TTITLE1=Myrskylyhty
TTITLE2=Koko Yö
TTITLE3=Onnenpäivät
TTITLE4=Paahdetut Kastanjat
TTITLE5=Jos Vielä Kohdataan
TTITLE6=Jää Vuodet Nää Taa
TTITLE7=Lohduttaa Voisin
TTITLE8=Kuin Joen Kuivuvaa Uomaa
TTITLE9=Ei Aika Mennyt Koskaa Palaa
TTITLE10=Loitsu
TTITLE11=Neliapila
TTITLE12=Keskiyön Auringon Maa
TTITLE13=Hiukset Hulmuten
TTITLE14=Musta Sametti
TTITLE15=Moskovan Valot
EXTD=
EXTT0=
EXTT1=
EXTT2=
EXTT3=
EXTT4=
EXTT5=
EXTT6=
EXTT7=
EXTT8=
EXTT9=
EXTT10=
EXTT11=
EXTT12=
EXTT13=
EXTT14=
EXTT15=
PLAYORDER=
